<mxfile host="65bd71144e">
    <diagram id="01aeFMjwJpFisktiwnpG" name="Page-1">
        <mxGraphModel dx="382" dy="206" grid="1" gridSize="10" guides="1" tooltips="1" connect="1" arrows="1" fold="1" page="1" pageScale="1" pageWidth="850" pageHeight="1100" math="0" shadow="0">
            <root>
                <mxCell id="0"/>
                <mxCell id="1" parent="0"/>
                <mxCell id="2" value="" style="edgeStyle=none;html=1;fontColor=#000000;strokeColor=#FFFFFF;strokeWidth=2;" edge="1" parent="1" source="3" target="5">
                    <mxGeometry relative="1" as="geometry"/>
                </mxCell>
                <mxCell id="3" value="&lt;font&gt;&lt;b&gt;START&lt;/b&gt;&lt;/font&gt;" style="ellipse;whiteSpace=wrap;html=1;fillColor=#FF66B3;fontColor=#000000;strokeColor=#FFFFFF;gradientColor=none;gradientDirection=radial;strokeWidth=2;" vertex="1" parent="1">
                    <mxGeometry x="140" y="10" width="80" height="30" as="geometry"/>
                </mxCell>
                <mxCell id="4" style="edgeStyle=none;html=1;exitX=0.5;exitY=1;exitDx=0;exitDy=0;entryX=0.5;entryY=0;entryDx=0;entryDy=0;fontColor=#000000;strokeColor=#FFFFFF;strokeWidth=2;" edge="1" parent="1" source="5" target="7">
                    <mxGeometry relative="1" as="geometry"/>
                </mxCell>
                <mxCell id="5" value="&lt;font&gt;Input jumlah_siswa&lt;/font&gt;" style="shape=parallelogram;perimeter=parallelogramPerimeter;whiteSpace=wrap;html=1;fixedSize=1;gradientDirection=radial;fillColor=#66B2FF;fontColor=#000000;strokeColor=#FFFFFF;strokeWidth=2;" vertex="1" parent="1">
                    <mxGeometry x="115" y="70" width="130" height="35" as="geometry"/>
                </mxCell>
                <mxCell id="6" value="" style="edgeStyle=none;html=1;fontColor=#000000;strokeColor=#FFFFFF;strokeWidth=2;" edge="1" parent="1" source="7" target="9">
                    <mxGeometry relative="1" as="geometry"/>
                </mxCell>
                <mxCell id="7" value="&lt;font&gt;for i = 1 to jumlah_siswa&lt;/font&gt;" style="shape=hexagon;perimeter=hexagonPerimeter2;whiteSpace=wrap;html=1;fixedSize=1;gradientDirection=radial;fillColor=#66FFB3;fontColor=#000000;strokeColor=#FFFFFF;strokeWidth=2;" vertex="1" parent="1">
                    <mxGeometry x="130" y="140" width="100" height="50" as="geometry"/>
                </mxCell>
                <mxCell id="8" value="" style="edgeStyle=none;html=1;fontColor=#000000;strokeColor=#FFFFFF;strokeWidth=2;" edge="1" parent="1" source="9" target="11">
                    <mxGeometry relative="1" as="geometry"/>
                </mxCell>
                <mxCell id="9" value="&lt;font&gt;Input nama; no_induk; n_mat; n_ipa; n_indo; n_inggris;&amp;nbsp;&amp;nbsp;&lt;/font&gt;" style="shape=parallelogram;perimeter=parallelogramPerimeter;whiteSpace=wrap;html=1;fixedSize=1;gradientDirection=radial;fillColor=#66B2FF;fontColor=#000000;strokeColor=#FFFFFF;strokeWidth=2;" vertex="1" parent="1">
                    <mxGeometry x="85" y="230" width="190" height="45" as="geometry"/>
                </mxCell>
                <mxCell id="10" value="" style="edgeStyle=none;html=1;fontColor=#000000;strokeColor=#FFFFFF;strokeWidth=2;" edge="1" parent="1" source="11" target="14">
                    <mxGeometry relative="1" as="geometry"/>
                </mxCell>
                <mxCell id="11" value="&lt;font&gt;Proses perhitungan nilai&amp;nbsp;&lt;br&gt;total : (n_mat + n_ipa + n_indo + n_inggris) / 4&lt;/font&gt;" style="whiteSpace=wrap;html=1;gradientDirection=radial;fillColor=#FFB366;fontColor=#000000;strokeColor=#FFFFFF;strokeWidth=2;" vertex="1" parent="1">
                    <mxGeometry x="105" y="320" width="150" height="50" as="geometry"/>
                </mxCell>
                <mxCell id="12" value="" style="edgeStyle=none;html=1;fontColor=#000000;strokeColor=#FFFFFF;strokeWidth=2;" edge="1" parent="1" source="14" target="16">
                    <mxGeometry relative="1" as="geometry"/>
                </mxCell>
                <mxCell id="13" value="" style="edgeStyle=none;html=1;fontColor=#000000;strokeColor=#FFFFFF;strokeWidth=2;" edge="1" parent="1" source="14" target="19">
                    <mxGeometry relative="1" as="geometry"/>
                </mxCell>
                <mxCell id="14" value="&lt;font&gt;if total &amp;gt;= 80 &amp;amp;&amp;amp; total &amp;lt;= 100&lt;/font&gt;" style="rhombus;whiteSpace=wrap;html=1;gradientDirection=radial;fillColor=#FF0000;fontColor=#000000;strokeColor=#FFFFFF;strokeWidth=2;" vertex="1" parent="1">
                    <mxGeometry x="85" y="390" width="190" height="60" as="geometry"/>
                </mxCell>
                <mxCell id="15" style="edgeStyle=none;html=1;exitX=1;exitY=0.5;exitDx=0;exitDy=0;entryX=1;entryY=0.5;entryDx=0;entryDy=0;fontSize=12;fontColor=#000000;strokeColor=#FFFFFF;strokeWidth=2;" edge="1" parent="1" source="16" target="37">
                    <mxGeometry relative="1" as="geometry">
                        <Array as="points">
                            <mxPoint x="480" y="420"/>
                            <mxPoint x="480" y="980"/>
                        </Array>
                    </mxGeometry>
                </mxCell>
                <mxCell id="16" value="indeks = &quot;&lt;b&gt;A&lt;/b&gt;&quot;" style="shape=parallelogram;perimeter=parallelogramPerimeter;whiteSpace=wrap;html=1;fixedSize=1;gradientDirection=radial;fillColor=#66B2FF;fontColor=#000000;strokeColor=#FFFFFF;strokeWidth=2;" vertex="1" parent="1">
                    <mxGeometry x="310" y="390" width="120" height="60" as="geometry"/>
                </mxCell>
                <mxCell id="17" value="" style="edgeStyle=none;html=1;fontSize=11;fontColor=#000000;strokeColor=#FFFFFF;strokeWidth=2;" edge="1" parent="1" source="19" target="21">
                    <mxGeometry relative="1" as="geometry"/>
                </mxCell>
                <mxCell id="18" value="" style="edgeStyle=none;html=1;fontSize=11;fontColor=#000000;strokeColor=#FFFFFF;strokeWidth=2;" edge="1" parent="1" source="19" target="24">
                    <mxGeometry relative="1" as="geometry"/>
                </mxCell>
                <mxCell id="19" value="&lt;div&gt;&lt;span&gt;&lt;font style=&quot;font-size: 12px&quot;&gt;if total &amp;gt;= 65 &amp;amp;&amp;amp; total &amp;lt;= 79,99&lt;/font&gt;&lt;/span&gt;&lt;/div&gt;" style="rhombus;whiteSpace=wrap;html=1;gradientDirection=radial;align=center;fillColor=#FF0000;fontColor=#000000;strokeColor=#FFFFFF;strokeWidth=2;" vertex="1" parent="1">
                    <mxGeometry x="90" y="490" width="180" height="70" as="geometry"/>
                </mxCell>
                <mxCell id="20" style="edgeStyle=none;html=1;exitX=1;exitY=0.5;exitDx=0;exitDy=0;fontSize=12;fontColor=#000000;strokeColor=#FFFFFF;strokeWidth=2;" edge="1" parent="1" source="21">
                    <mxGeometry relative="1" as="geometry">
                        <mxPoint x="480" y="525.0000000000001" as="targetPoint"/>
                    </mxGeometry>
                </mxCell>
                <mxCell id="21" value="indeks = &quot;&lt;b&gt;B&lt;/b&gt;&quot;" style="shape=parallelogram;perimeter=parallelogramPerimeter;whiteSpace=wrap;html=1;fixedSize=1;gradientDirection=radial;fillColor=#66B2FF;fontColor=#000000;strokeColor=#FFFFFF;strokeWidth=2;" vertex="1" parent="1">
                    <mxGeometry x="310.005" y="495" width="120" height="60" as="geometry"/>
                </mxCell>
                <mxCell id="22" value="" style="edgeStyle=none;html=1;fontSize=11;fontColor=#000000;strokeColor=#FFFFFF;strokeWidth=2;" edge="1" parent="1" source="24" target="26">
                    <mxGeometry relative="1" as="geometry"/>
                </mxCell>
                <mxCell id="23" style="edgeStyle=none;html=1;exitX=0.5;exitY=1;exitDx=0;exitDy=0;fontSize=11;fontColor=#000000;strokeColor=#FFFFFF;strokeWidth=2;" edge="1" parent="1" source="24" target="29">
                    <mxGeometry relative="1" as="geometry"/>
                </mxCell>
                <mxCell id="24" value="if total &amp;gt;= 55 &amp;amp;&amp;amp; total &amp;lt;= 64,99" style="rhombus;whiteSpace=wrap;html=1;gradientDirection=radial;fillColor=#FF0000;fontColor=#000000;strokeColor=#FFFFFF;strokeWidth=2;" vertex="1" parent="1">
                    <mxGeometry x="90" y="600" width="180" height="80" as="geometry"/>
                </mxCell>
                <mxCell id="25" style="edgeStyle=none;html=1;exitX=1;exitY=0.5;exitDx=0;exitDy=0;fontSize=12;fontColor=#000000;strokeColor=#FFFFFF;strokeWidth=2;" edge="1" parent="1" source="26">
                    <mxGeometry relative="1" as="geometry">
                        <mxPoint x="480" y="640.0000000000001" as="targetPoint"/>
                    </mxGeometry>
                </mxCell>
                <mxCell id="26" value="indeks = &quot;&lt;b&gt;C&lt;/b&gt;&quot;" style="shape=parallelogram;perimeter=parallelogramPerimeter;whiteSpace=wrap;html=1;fixedSize=1;gradientDirection=radial;fillColor=#66B2FF;fontColor=#000000;strokeColor=#FFFFFF;strokeWidth=2;" vertex="1" parent="1">
                    <mxGeometry x="310" y="610" width="120" height="60" as="geometry"/>
                </mxCell>
                <mxCell id="27" value="" style="edgeStyle=none;html=1;fontSize=11;fontColor=#000000;strokeColor=#FFFFFF;strokeWidth=2;" edge="1" parent="1" source="29" target="31">
                    <mxGeometry relative="1" as="geometry"/>
                </mxCell>
                <mxCell id="28" style="edgeStyle=none;html=1;exitX=0.5;exitY=1;exitDx=0;exitDy=0;entryX=0.5;entryY=0;entryDx=0;entryDy=0;fontSize=11;fontColor=#000000;strokeColor=#FFFFFF;strokeWidth=2;" edge="1" parent="1" source="29" target="33">
                    <mxGeometry relative="1" as="geometry"/>
                </mxCell>
                <mxCell id="29" value="if total &amp;gt;= 40 &amp;amp;&amp;amp; total &amp;lt;= 54,99" style="rhombus;whiteSpace=wrap;html=1;gradientDirection=radial;fillColor=#FF0000;fontColor=#000000;strokeColor=#FFFFFF;strokeWidth=2;" vertex="1" parent="1">
                    <mxGeometry x="90" y="712" width="180" height="68" as="geometry"/>
                </mxCell>
                <mxCell id="30" style="edgeStyle=none;html=1;exitX=1;exitY=0.5;exitDx=0;exitDy=0;fontSize=12;fontColor=#000000;strokeColor=#FFFFFF;strokeWidth=2;" edge="1" parent="1" source="31">
                    <mxGeometry relative="1" as="geometry">
                        <mxPoint x="480" y="746" as="targetPoint"/>
                    </mxGeometry>
                </mxCell>
                <mxCell id="31" value="indeks = &quot;&lt;b&gt;D&lt;/b&gt;&quot;" style="shape=parallelogram;perimeter=parallelogramPerimeter;whiteSpace=wrap;html=1;fixedSize=1;gradientDirection=radial;fillColor=#66B2FF;fontColor=#000000;strokeColor=#FFFFFF;strokeWidth=2;" vertex="1" parent="1">
                    <mxGeometry x="310" y="716" width="120" height="60" as="geometry"/>
                </mxCell>
                <mxCell id="32" value="" style="edgeStyle=none;html=1;fontSize=11;fontColor=#000000;strokeColor=#FFFFFF;strokeWidth=2;" edge="1" parent="1" source="33" target="35">
                    <mxGeometry relative="1" as="geometry"/>
                </mxCell>
                <mxCell id="33" value="if total &amp;lt; 40" style="rhombus;whiteSpace=wrap;html=1;gradientDirection=radial;fillColor=#FF0000;fontColor=#000000;strokeColor=#FFFFFF;strokeWidth=2;" vertex="1" parent="1">
                    <mxGeometry x="90" y="824" width="180" height="80" as="geometry"/>
                </mxCell>
                <mxCell id="34" style="edgeStyle=none;html=1;exitX=1;exitY=0.5;exitDx=0;exitDy=0;fontSize=12;fontColor=#000000;strokeColor=#FFFFFF;strokeWidth=2;" edge="1" parent="1" source="35">
                    <mxGeometry relative="1" as="geometry">
                        <mxPoint x="480" y="864" as="targetPoint"/>
                    </mxGeometry>
                </mxCell>
                <mxCell id="35" value="indeks = &quot;&lt;b&gt;E&lt;/b&gt;&quot;" style="shape=parallelogram;perimeter=parallelogramPerimeter;whiteSpace=wrap;html=1;fixedSize=1;gradientDirection=radial;fillColor=#66B2FF;fontColor=#000000;strokeColor=#FFFFFF;strokeWidth=2;" vertex="1" parent="1">
                    <mxGeometry x="310" y="834" width="120" height="60" as="geometry"/>
                </mxCell>
                <mxCell id="36" value="" style="edgeStyle=none;html=1;fontSize=12;fontColor=#000000;strokeColor=#FFFFFF;strokeWidth=2;" edge="1" parent="1" source="37" target="40">
                    <mxGeometry relative="1" as="geometry"/>
                </mxCell>
                <mxCell id="37" value="print&amp;nbsp;&lt;br&gt;&quot;Selamat telah mengikuti kegiatan di semester ini, anda mendapatkan &quot; + total + &quot; sehingga indeks nilai anda adalah &quot; + indeks;&amp;nbsp;" style="shape=parallelogram;perimeter=parallelogramPerimeter;whiteSpace=wrap;html=1;fixedSize=1;fontSize=12;gradientDirection=radial;fillColor=#66B2FF;fontColor=#000000;strokeColor=#FFFFFF;strokeWidth=2;" vertex="1" parent="1">
                    <mxGeometry x="90" y="940" width="360" height="80" as="geometry"/>
                </mxCell>
                <mxCell id="38" style="edgeStyle=none;html=1;exitX=0;exitY=0.5;exitDx=0;exitDy=0;entryX=0.5;entryY=0;entryDx=0;entryDy=0;fontSize=12;fontColor=#000000;strokeColor=#FFFFFF;strokeWidth=2;" edge="1" parent="1" source="40" target="42">
                    <mxGeometry relative="1" as="geometry">
                        <Array as="points">
                            <mxPoint x="148" y="1065"/>
                        </Array>
                    </mxGeometry>
                </mxCell>
                <mxCell id="39" style="edgeStyle=none;html=1;exitX=1;exitY=0.5;exitDx=0;exitDy=0;entryX=0.619;entryY=0.04;entryDx=0;entryDy=0;entryPerimeter=0;fontSize=12;fontColor=#000000;strokeColor=#FFFFFF;strokeWidth=2;" edge="1" parent="1" source="40" target="44">
                    <mxGeometry relative="1" as="geometry">
                        <Array as="points">
                            <mxPoint x="387" y="1065"/>
                        </Array>
                    </mxGeometry>
                </mxCell>
                <mxCell id="40" value="if total &amp;lt; 65" style="rhombus;whiteSpace=wrap;html=1;gradientDirection=radial;fillColor=#FF0000;fontColor=#000000;strokeColor=#FFFFFF;strokeWidth=2;" vertex="1" parent="1">
                    <mxGeometry x="212.5" y="1040" width="115" height="50" as="geometry"/>
                </mxCell>
                <mxCell id="41" style="edgeStyle=none;html=1;exitX=0.5;exitY=1;exitDx=0;exitDy=0;entryX=0.5;entryY=0;entryDx=0;entryDy=0;fontSize=12;fontColor=#000000;strokeColor=#FFFFFF;strokeWidth=2;" edge="1" parent="1" source="42" target="48">
                    <mxGeometry relative="1" as="geometry">
                        <mxPoint x="270" y="1300" as="targetPoint"/>
                        <Array as="points">
                            <mxPoint x="148" y="1200"/>
                            <mxPoint x="270" y="1200"/>
                        </Array>
                    </mxGeometry>
                </mxCell>
                <mxCell id="42" value="print &quot;Mohon maaf anda &lt;b&gt;TIDAK LULUS&lt;/b&gt;&quot;" style="shape=parallelogram;perimeter=parallelogramPerimeter;whiteSpace=wrap;html=1;fixedSize=1;fontSize=12;gradientDirection=radial;fillColor=#66B2FF;fontColor=#000000;strokeColor=#FFFFFF;strokeWidth=2;" vertex="1" parent="1">
                    <mxGeometry x="66.5" y="1100" width="165" height="60" as="geometry"/>
                </mxCell>
                <mxCell id="43" style="edgeStyle=none;html=1;exitX=0.595;exitY=1.08;exitDx=0;exitDy=0;entryX=0.5;entryY=0;entryDx=0;entryDy=0;fontSize=12;exitPerimeter=0;fontColor=#000000;strokeColor=#FFFFFF;strokeWidth=2;" edge="1" parent="1" source="44" target="48">
                    <mxGeometry relative="1" as="geometry">
                        <mxPoint x="270" y="1300" as="targetPoint"/>
                        <Array as="points">
                            <mxPoint x="383" y="1200"/>
                            <mxPoint x="271" y="1200"/>
                        </Array>
                    </mxGeometry>
                </mxCell>
                <mxCell id="44" value="print &quot;Selamat anda &lt;b&gt;LULUS&lt;/b&gt;&quot;" style="shape=parallelogram;perimeter=parallelogramPerimeter;whiteSpace=wrap;html=1;fixedSize=1;fontSize=12;gradientDirection=radial;fillColor=#66B2FF;fontColor=#000000;strokeColor=#FFFFFF;strokeWidth=2;" vertex="1" parent="1">
                    <mxGeometry x="301" y="1100" width="140" height="50" as="geometry"/>
                </mxCell>
                <mxCell id="45" value="&lt;b&gt;END&lt;/b&gt;" style="ellipse;whiteSpace=wrap;html=1;fontSize=12;fillColor=#FF66B3;gradientColor=none;gradientDirection=radial;fontColor=#000000;strokeColor=#FFFFFF;strokeWidth=2;" vertex="1" parent="1">
                    <mxGeometry x="229" y="1350" width="82" height="40" as="geometry"/>
                </mxCell>
                <mxCell id="46" style="edgeStyle=none;html=1;exitX=0.5;exitY=1;exitDx=0;exitDy=0;entryX=0.5;entryY=0;entryDx=0;entryDy=0;fontSize=12;fontColor=#000000;strokeColor=#FFFFFF;strokeWidth=2;" edge="1" parent="1" source="48" target="45">
                    <mxGeometry relative="1" as="geometry"/>
                </mxCell>
                <mxCell id="47" style="edgeStyle=none;html=1;exitX=0;exitY=0.5;exitDx=0;exitDy=0;entryX=0;entryY=0.5;entryDx=0;entryDy=0;fontSize=12;fontColor=#000000;strokeColor=#FFFFFF;strokeWidth=2;" edge="1" parent="1" source="48" target="7">
                    <mxGeometry relative="1" as="geometry">
                        <Array as="points">
                            <mxPoint x="40" y="1280"/>
                            <mxPoint x="40" y="165"/>
                        </Array>
                    </mxGeometry>
                </mxCell>
                <mxCell id="48" value="next --&amp;gt; i" style="shape=hexagon;perimeter=hexagonPerimeter2;whiteSpace=wrap;html=1;fixedSize=1;fontSize=12;gradientDirection=radial;fillColor=#66FFB3;fontColor=#000000;strokeColor=#FFFFFF;strokeWidth=2;" vertex="1" parent="1">
                    <mxGeometry x="231.5" y="1260" width="77" height="40" as="geometry"/>
                </mxCell>
            </root>
        </mxGraphModel>
    </diagram>
</mxfile>